PathFileType	4	(X/Y/Z)	Walk9.trc
DataRate	CameraRate	NumFrames	NumMarkers	Units	OrigDataRate	OrigDataStartFrame	OrigNumFrames
200.000000	200.000000	8	59	mm	200.000000	319	587
Frame#	Times		LFHD		RFHD		CLAV		STRN		LASI		RASI		RACR1		RUA1		RElbow		RFA1		RWRR		RWRU		RCAR		LACR1		LUA1		LElbow		LFA1		LWRR		RTH3		RTH2		RTB1		RTB2		RTB4		LTH1		LTH3		LTH2		LTB1		LTB2		LTB4		LMT1		LTB3		LCAR		LLFC		LWRU		LMFC		LToe		LMT5		RTB3		RMFC		RMMAL		RElbowM		LTH4		RTH4		RMT1		RLFC		RToe		LBHD		RCAL		RTH1		RBack		RPSI		C7		T10		LPSI		LElbowM		LMMAL		LLMAL		RBHD		LCAL
			X1	Y1	Z1	X2	Y2	Z2	X3	Y3	Z3	X4	Y4	Z4	X5	Y5	Z5	X6	Y6	Z6	X7	Y7	Z7	X8	Y8	Z8	X9	Y9	Z9	X10	Y10	Z10	X11	Y11	Z11	X12	Y12	Z12	X13	Y13	Z13	X14	Y14	Z14	X15	Y15	Z15	X16	Y16	Z16	X17	Y17	Z17	X18	Y18	Z18	X19	Y19	Z19	X20	Y20	Z20	X21	Y21	Z21	X22	Y22	Z22	X23	Y23	Z23	X24	Y24	Z24	X25	Y25	Z25	X26	Y26	Z26	X27	Y27	Z27	X28	Y28	Z28	X29	Y29	Z29	X30	Y30	Z30	X31	Y31	Z31	X32	Y32	Z32	X33	Y33	Z33	X34	Y34	Z34	X35	Y35	Z35	X36	Y36	Z36	X37	Y37	Z37	X38	Y38	Z38	X39	Y39	Z39	X40	Y40	Z40	X41	Y41	Z41	X42	Y42	Z42	X43	Y43	Z43	X44	Y44	Z44	X45	Y45	Z45	X46	Y46	Z46	X47	Y47	Z47	X48	Y48	Z48	X49	Y49	Z49	X50	Y50	Z50	X51	Y51	Z51	X52	Y52	Z52	X53	Y53	Z53	X54	Y54	Z54	X55	Y55	Z55	X56	Y56	Z56	X57	Y57	Z57	X58	Y58	Z58	X59	Y59	Z59

319	1.595	50.275	1655.4	-87.966	47.391	1664.7	10.461	42.032	1411	-13.413	111.55	1254.1	-7.2812	-26.245	993.5	-176.76	14.423	995.68	180.82	-71.766	1506.7	150.97	-117.58	1352.5	280.19	-129.61	1206.3	337.97	-120.86	1053.3	363.66	-118.5	927.89	303.57	-124.18	940.18	384.07	-103.04	849.49	358.13	-73.957	1461.7	-199.69	-73.061	1283.2	-283.15	-35.762	1123.8	-334.23	32.839	1001.8	-344.99	124.78	907.11	-286.89	58.767	643.07	217.98	66.311	748.24	214.8	168.82	428.63	145.5	147.16	338.78	195.89	173.37	342.32	140.45	-104.86	760.36	-187.73	-104.01	591.93	-156.84	-46.392	679.35	-160.51	-79.312	375.03	-82.61	-135.51	292.31	-112.33	-102.09	297.04	-59.845	-104.71	37.233	-22.937	-134.03	217.77	-39.184	168.73	834.21	-321.69	-127.99	507.39	-148.37	87.615	873.48	-342	-98.829	502.63	6.3845	-51.939	23.667	-65.551	-176.57	25.211	-95.375	178.45	256.75	134.97	93.096	532.6	53.605	165.68	116.83	77.11	-190.44	1137.5	245.83	-105.54	676.86	-171.91	17.39	718.09	229.48	295.06	85.767	122.79	83.25	535.36	209	323.91	106.09	162.34	-102.91	1583.8	-97.204	78.65	59.857	102.18	-26.407	792.89	236.23	-219.23	1385.3	102.87	-260.74	1032.5	57.843	-152.23	1489.3	-20.775	-219.69	1175.4	13.294	-260.57	1046.4	-26.587	-83.85	1050.5	-242.19	-225.34	93.301	56.87	-259.21	85.075	-26.456	-91.523	1602.3	50.412	-309.04	65.256	35.69
320	1.6	56.198	1654.6	-87.872	53.329	1663.8	10.557	47.977	1410	-13.544	117.36	1253.1	-7.6255	-21.361	992.79	-177.29	20.708	994.46	180.81	-65.55	1505.9	151	-111.8	1351.8	280.19	-124.39	1205.6	337.91	-116.37	1052.6	363.68	-114.66	927.1	303.67	-120.29	939.46	384.15	-99.673	848.59	358.26	-68.254	1460.7	-199.68	-66.601	1282.4	-283.19	-27.944	1123.4	-334.45	41.468	1001.8	-345.18	133.83	907.68	-286.97	64.297	641.4	217.02	72.007	746.56	213.96	178	429.48	144.41	158.92	339.12	194.89	185.1	343.34	139.47	-100.55	759.8	-187.91	-100.43	591.34	-157.11	-42.427	678.49	-160.75	-76.997	374.09	-82.762	-133.78	291.76	-112.44	-100.34	296.29	-59.951	-104.69	37.236	-22.964	-132.91	217.27	-39.192	178.42	835.22	-321.77	-124.85	506.83	-148.57	97.049	873.87	-342.22	-95.531	501.89	6.1231	-51.964	23.657	-65.591	-176.61	25.21	-95.317	192.72	257.93	134.15	98.996	530.85	52.229	184.14	117.66	76.423	-185.37	1137.1	245.71	-101.57	676.25	-172.11	23.115	716.49	228.85	314.35	90.22	122.05	89.757	533.92	207.74	342.72	111.12	161.65	-96.975	1583	-97.143	98.764	58.351	101.4	-20.574	791.35	235.76	-213.17	1384.6	103.03	-254.7	1031.6	58.456	-146.27	1488.5	-20.663	-213.7	1174.6	13.936	-254.81	1045.7	-25.857	-75.847	1049.6	-242.7	-225.02	93.45	56.937	-258.93	85.403	-26.395	-85.623	1601.4	50.49	-308.88	65.803	35.737
321	1.605	62.148	1653.7	-87.753	59.295	1662.9	10.681	53.955	1409	-13.652	123.19	1252.1	-7.9522	-16.493	992.04	-177.86	26.984	993.18	180.85	-59.301	1505	151.04	-106	1351.1	280.22	-119.14	1204.9	337.86	-111.82	1051.9	363.71	-110.75	926.29	303.76	-116.34	938.72	384.24	-96.238	847.67	358.38	-62.517	1459.8	-199.65	-60.14	1281.6	-283.21	-20.176	1123	-334.64	50.026	1001.8	-345.34	142.79	908.23	-287.01	69.75	639.6	216.07	77.656	744.75	213.09	187.03	430.32	143.32	170.52	339.5	193.89	196.62	344.4	138.48	-96.242	759.21	-188.09	-96.856	590.72	-157.39	-38.47	677.6	-161	-74.679	373.14	-82.92	-132.06	291.21	-112.55	-98.583	295.53	-60.063	-104.66	37.24	-22.993	-131.78	216.78	-39.195	188.01	836.19	-321.8	-121.71	506.26	-148.77	106.4	874.24	-342.4	-92.212	501.12	5.8731	-51.992	23.648	-65.635	-176.65	25.208	-95.254	206.72	259.22	133.31	104.79	529	50.876	202.26	118.73	75.702	-180.26	1136.7	245.6	-97.609	675.62	-172.31	28.78	714.77	228.19	333.22	94.894	121.2	96.222	532.42	206.5	361.13	116.32	160.84	-91.015	1582.1	-97.059	118.58	57.149	100.6	-14.762	789.7	235.26	-207.07	1383.8	103.19	-248.63	1030.8	59.1	-140.28	1487.6	-20.53	-207.68	1173.8	14.598	-249.02	1044.9	-25.095	-67.886	1048.7	-243.16	-224.68	93.594	57	-258.66	85.732	-26.325	-79.698	1600.5	50.588	-308.72	66.357	35.788
322	1.61	68.126	1652.9	-87.606	65.289	1662	10.833	59.966	1408	-13.739	129.05	1251	-8.2615	-11.638	991.23	-178.46	33.252	991.85	180.94	-53.019	1504.2	151.11	-100.17	1350.4	280.26	-113.86	1204.2	337.83	-107.22	1051.1	363.74	-106.79	925.47	303.85	-112.3	937.97	384.32	-92.733	846.73	358.47	-56.749	1458.8	-199.59	-53.677	1280.8	-283.2	-12.459	1122.5	-334.81	58.512	1001.8	-345.46	151.68	908.76	-287.02	75.15	637.68	215.14	83.275	742.82	212.21	195.91	431.13	142.23	181.94	339.93	192.89	207.93	345.49	137.49	-91.937	758.59	-188.25	-93.292	590.07	-157.65	-34.52	676.68	-161.25	-72.358	372.16	-83.086	-130.36	290.64	-112.66	-96.83	294.75	-60.178	-104.64	37.247	-23.023	-130.65	216.28	-39.194	197.49	837.13	-321.8	-118.58	505.68	-148.95	115.66	874.6	-342.54	-88.87	500.33	5.6313	-52.022	23.642	-65.684	-176.7	25.207	-95.187	220.44	260.6	132.44	110.49	527.09	49.551	220.02	120.03	74.944	-175.1	1136.2	245.51	-93.656	674.96	-172.5	34.403	712.95	227.52	351.63	99.745	120.24	102.66	530.89	205.27	379.11	121.65	159.91	-85.025	1581.3	-96.951	138.05	56.232	99.759	-8.9611	787.97	234.73	-200.94	1383	103.37	-242.53	1029.9	59.776	-134.26	1486.8	-20.374	-201.63	1172.9	15.277	-243.19	1044	-24.302	-59.973	1047.9	-243.59	-224.33	93.736	57.06	-258.39	86.063	-26.248	-73.746	1599.6	50.707	-308.55	66.918	35.838
323	1.615	74.131	1652	-87.431	71.312	1661	11.015	66.009	1407	-13.802	134.94	1249.9	-8.5537	-6.7946	990.37	-179.08	39.515	990.45	181.05	-46.704	1503.2	151.19	-94.317	1349.6	280.33	-108.54	1203.5	337.83	-102.55	1050.3	363.78	-102.76	924.63	303.94	-108.2	937.19	384.39	-89.153	845.78	358.56	-50.949	1457.8	-199.49	-47.209	1280	-283.17	-4.7957	1122	-334.95	66.923	1001.8	-345.56	160.48	909.25	-287	80.527	635.67	214.23	88.881	740.8	211.32	204.66	431.92	141.15	193.17	340.39	191.89	219.02	346.62	136.49	-87.632	757.94	-188.4	-89.736	589.4	-157.9	-30.573	675.73	-161.51	-70.032	371.18	-83.258	-128.67	290.06	-112.76	-95.077	293.96	-60.297	-104.62	37.255	-23.053	-129.51	215.79	-39.189	206.88	838.02	-321.75	-115.45	505.07	-149.13	124.83	874.93	-342.65	-85.505	499.51	5.3946	-52.055	23.639	-65.735	-176.75	25.204	-95.116	233.88	262.06	131.55	116.12	525.15	48.263	237.37	121.52	74.145	-169.89	1135.7	245.44	-89.709	674.28	-172.67	40.004	711.05	226.82	369.54	104.72	119.18	109.09	529.34	204.06	396.61	127.05	158.87	-79.005	1580.4	-96.818	157.13	55.58	98.883	-3.1609	786.16	234.18	-194.78	1382.2	103.56	-236.4	1029	60.481	-128.21	1485.8	-20.193	-195.54	1172	15.971	-237.33	1043.2	-23.48	-52.111	1047	-243.98	-223.96	93.879	57.114	-258.12	86.398	-26.167	-67.766	1598.6	50.85	-308.39	67.487	35.887
324	1.62	80.165	1651.1	-87.228	77.363	1660.1	11.227	72.085	1405.9	-13.843	140.86	1248.8	-8.8286	-1.9566	989.45	-179.73	45.776	989	181.19	-40.358	1502.3	151.29	-88.435	1348.9	280.42	-103.18	1202.7	337.85	-97.822	1049.5	363.83	-98.656	923.78	304.02	-104.01	936.39	384.47	-85.495	844.8	358.62	-45.119	1456.8	-199.37	-40.736	1279.2	-283.11	2.8128	1121.6	-335.07	75.259	1001.8	-345.63	169.2	909.73	-286.95	85.915	633.61	213.33	94.493	738.71	210.41	213.29	432.69	140.09	204.2	340.89	190.89	229.91	347.76	135.5	-83.324	757.27	-188.53	-86.186	588.71	-158.14	-26.626	674.76	-161.77	-67.701	370.18	-83.436	-126.99	289.47	-112.87	-93.324	293.16	-60.42	-104.6	37.264	-23.085	-128.36	215.29	-39.183	216.16	838.87	-321.65	-112.33	504.46	-149.3	133.91	875.24	-342.72	-82.116	498.67	5.1609	-52.089	23.64	-65.791	-176.8	25.201	-95.043	247.01	263.58	130.64	121.7	523.19	47.023	254.28	123.18	73.303	-164.63	1135.2	245.39	-85.765	673.57	-172.85	45.609	709.09	226.1	386.93	109.77	118.02	115.53	527.78	202.86	413.6	132.48	157.73	-72.956	1579.4	-96.659	175.75	55.165	97.957	2.6504	784.29	233.59	-188.58	1381.4	103.77	-230.23	1028.1	61.212	-122.13	1484.9	-19.988	-189.41	1171.1	16.677	-231.43	1042.3	-22.634	-44.306	1046.1	-244.34	-223.59	94.027	57.162	-257.85	86.74	-26.084	-61.757	1597.6	51.018	-308.22	68.064	35.931
325	1.625	86.226	1650.2	-86.995	83.442	1659	11.471	78.193	1404.8	-13.859	146.81	1247.6	-9.0861	2.8828	988.48	-180.39	52.036	987.49	181.34	-33.98	1501.3	151.42	-82.527	1348.1	280.54	-97.789	1202	337.9	-93.03	1048.7	363.9	-94.478	922.91	304.1	-99.751	935.56	384.54	-81.756	843.81	358.68	-39.258	1455.8	-199.22	-34.258	1278.3	-283.03	10.365	1121.1	-335.16	83.519	1001.7	-345.68	177.83	910.17	-286.87	91.353	631.51	212.44	100.14	736.6	209.49	221.81	433.42	139.06	215.03	341.4	189.9	240.58	348.89	134.52	-79.01	756.57	-188.66	-82.639	587.99	-158.38	-22.676	673.76	-162.04	-65.364	369.17	-83.619	-125.31	288.88	-112.98	-91.571	292.35	-60.546	-104.58	37.273	-23.117	-127.19	214.8	-39.178	225.34	839.68	-321.52	-109.21	503.83	-149.46	142.91	875.53	-342.77	-78.703	497.81	4.9285	-52.123	23.643	-65.848	-176.86	25.197	-94.968	259.82	265.14	129.73	127.26	521.26	45.839	270.72	124.96	72.414	-159.33	1134.7	245.37	-81.82	672.84	-173.01	51.246	707.09	225.36	403.75	114.82	116.78	122	526.24	201.69	430.05	137.86	156.5	-66.878	1578.5	-96.472	193.86	54.959	96.972	8.4856	782.38	232.98	-182.35	1380.5	103.99	-224.04	1027.1	61.968	-116.02	1483.9	-19.757	-183.25	1170.1	17.392	-225.51	1041.5	-21.768	-36.562	1045.2	-244.66	-223.21	94.185	57.203	-257.57	87.092	-26.002	-55.719	1596.6	51.212	-308.04	68.649	35.969
326	1.63	92.315	1649.2	-86.732	89.55	1658	11.746	84.333	1403.7	-13.853	152.8	1246.4	-9.3253	7.7314	987.46	-181.05	58.299	985.93	181.49	-27.571	1500.3	151.57	-76.592	1347.3	280.68	-92.359	1201.2	337.98	-88.174	1047.8	363.97	-90.221	922.03	304.18	-95.409	934.71	384.62	-77.932	842.79	358.72	-33.367	1454.8	-199.04	-27.774	1277.5	-282.93	17.86	1120.5	-335.23	91.703	1001.6	-345.7	186.38	910.59	-286.76	96.88	629.42	211.55	105.83	734.49	208.56	230.25	434.12	138.06	225.64	341.92	188.91	251.05	350.02	133.56	-74.686	755.85	-188.77	-79.091	587.26	-158.6	-18.719	672.73	-162.31	-63.018	368.15	-83.807	-123.63	288.28	-113.09	-89.814	291.53	-60.676	-104.57	37.281	-23.15	-126.01	214.31	-39.177	234.41	840.43	-321.34	-106.09	503.18	-149.62	151.8	875.79	-342.78	-75.268	496.93	4.6959	-52.157	23.65	-65.907	-176.92	25.19	-94.894	272.3	266.7	128.81	132.83	519.39	44.721	286.64	126.83	71.474	-153.97	1134.1	245.37	-77.87	672.09	-173.18	56.942	705.08	224.61	419.96	119.8	115.46	128.52	524.74	200.55	445.9	143.14	155.18	-60.772	1577.5	-96.256	211.4	54.93	95.918	14.359	780.45	232.36	-176.09	1379.6	104.23	-217.82	1026.1	62.745	-109.89	1482.8	-19.498	-177.07	1169.1	18.113	-219.55	1040.6	-20.884	-28.883	1044.4	-244.96	-222.82	94.357	57.235	-257.3	87.456	-25.927	-49.65	1595.5	51.436	-307.86	69.244	36
